<svg width="274" height="52" viewBox="0 0 274 52" fill="none" xmlns="http://www.w3.org/2000/svg">
<path d="M34.8369 24.8525V45.3604C34.1305 46.1123 33.0938 46.9896 31.7266 47.9922C30.3822 48.972 28.6162 49.8379 26.4287 50.5898C24.264 51.319 21.6208 51.6836 18.499 51.6836C15.7419 51.6836 13.2354 51.2507 10.9795 50.3848C8.74642 49.5189 6.82096 48.2087 5.20312 46.4541C3.60807 44.6768 2.389 42.4665 1.5459 39.8232C0.702799 37.1572 0.28125 34.0013 0.28125 30.3555V21.8789C0.28125 18.2786 0.680013 15.1455 1.47754 12.4795C2.29785 9.79069 3.48275 7.55762 5.03223 5.78027C6.58171 4.00293 8.42741 2.68132 10.5693 1.81543C12.734 0.949544 15.1722 0.516602 17.8838 0.516602C21.6208 0.516602 24.6855 1.14323 27.0781 2.39648C29.4935 3.64974 31.3164 5.50684 32.5469 7.96777C33.8001 10.4287 34.5521 13.4479 34.8027 17.0254H25.1299C24.9704 14.929 24.6172 13.2884 24.0703 12.1035C23.5462 10.9186 22.8057 10.0755 21.8486 9.57422C20.8916 9.05013 19.6497 8.78809 18.123 8.78809C16.8014 8.78809 15.6507 9.02734 14.6709 9.50586C13.6911 9.96159 12.8708 10.7135 12.21 11.7617C11.5492 12.8099 11.0592 14.1543 10.7402 15.7949C10.4212 17.4355 10.2617 19.4408 10.2617 21.8105V30.3555C10.2617 32.7025 10.444 34.7077 10.8086 36.3711C11.1732 38.0345 11.7087 39.3903 12.415 40.4385C13.1442 41.4867 14.0557 42.25 15.1494 42.7285C16.266 43.1842 17.5762 43.4121 19.0801 43.4121C20.2878 43.4121 21.2562 43.2868 21.9854 43.0361C22.7145 42.7855 23.2956 42.5234 23.7285 42.25C24.1842 41.9538 24.5602 41.7259 24.8564 41.5664V32.4062H17.7129V24.8525H34.8369ZM74.0889 42.7285V51H52.4531V42.7285H74.0889ZM55.5635 1.23438V51H45.5488V1.23438H55.5635ZM71.1836 21.4004V29.4326H52.4531V21.4004H71.1836ZM74.0205 1.23438V9.54004H52.4531V1.23438H74.0205ZM111.974 42.7285V51H90.3379V42.7285H111.974ZM93.4482 1.23438V51H83.4336V1.23438H93.4482ZM109.068 21.4004V29.4326H90.3379V21.4004H109.068ZM111.905 1.23438V9.54004H90.3379V1.23438H111.905ZM273.91 1.23438V51H264.237L248.617 19.8623V51H239.115V1.23438H248.651L264.408 32.7139V1.23438H273.91Z" fill="#A63352"/>
</svg>
